<svg width="1273" height="294" viewBox="0 0 1273 294" fill="none" xmlns="http://www.w3.org/2000/svg">
<path d="M113.858 77.8384C118.143 65.9357 129.434 58 142.085 58H278.315C299.093 58 313.58 78.6117 306.542 98.1616L256.142 238.162C251.857 250.064 240.566 258 227.915 258H91.6848C70.9067 258 56.4202 237.388 63.4582 217.838L113.858 77.8384Z" fill="#6A00FF"/>
<path d="M64.8582 19.8384C69.1432 7.93566 80.4342 0 93.0848 0H229.315C250.093 0 264.58 20.6117 257.542 40.1616L207.142 180.162C202.857 192.064 191.566 200 178.915 200H42.6848C21.9067 200 7.42023 179.388 14.4582 159.838L64.8582 19.8384Z" fill="#E100FF" fill-opacity="0.72"/>
<path d="M421.838 206L390.637 96.8691H415.832L433.923 172.675H434.875L454.724 96.8691H476.33L496.105 172.895H497.131L515.148 96.8691H540.417L509.143 206H486.657L465.93 134.662H465.051L444.396 206H421.838ZM552.648 206V96.8691H626.184V115.912H575.646V141.547H622.302V160.224H575.646V186.957H626.33V206H552.648ZM644.494 206V96.8691H688.146C700.158 96.8691 709.191 99.5059 715.246 104.779C721.301 110.004 724.328 116.693 724.328 124.848C724.328 131.244 722.448 136.444 718.688 140.448C714.978 144.403 710.29 147.016 704.626 148.285V149.384C708.776 149.579 712.658 150.751 716.271 152.899C719.934 155.048 722.888 158.075 725.134 161.981C727.429 165.839 728.576 170.453 728.576 175.824C728.576 181.586 727.16 186.762 724.328 191.352C721.496 195.893 717.297 199.481 711.73 202.118C706.164 204.706 699.279 206 691.076 206H644.494ZM684.631 142.572C689.318 142.572 693.225 141.327 696.35 138.837C699.475 136.347 701.037 132.953 701.037 128.656C701.037 124.75 699.646 121.601 696.862 119.208C694.079 116.767 690.148 115.546 685.07 115.546H667.492V142.572H684.631ZM686.315 187.177C692.761 187.177 697.448 185.932 700.378 183.441C703.356 180.951 704.846 177.655 704.846 173.554C704.846 169.062 703.234 165.375 700.012 162.494C696.789 159.564 692.419 158.1 686.901 158.1H667.492V187.177H686.315ZM784.094 207.538C770.861 207.538 760.29 204.511 752.38 198.456C744.519 192.401 740.417 183.49 740.075 171.723H762.414C762.805 177.191 764.953 181.317 768.859 184.101C772.814 186.835 777.795 188.202 783.801 188.202C789.66 188.202 794.348 186.957 797.863 184.467C801.428 181.977 803.21 178.729 803.21 174.726C803.21 171.063 801.599 168.256 798.376 166.303C795.153 164.301 790.563 162.592 784.606 161.176L772.668 158.246C763.488 156.049 756.237 152.558 750.915 147.772C745.642 142.938 743.005 136.493 743.005 128.437C743.005 121.845 744.787 116.083 748.352 111.151C751.916 106.171 756.799 102.313 763 99.5791C769.25 96.7959 776.354 95.4043 784.313 95.4043C792.419 95.4043 799.499 96.7959 805.554 99.5791C811.608 102.362 816.32 106.22 819.689 111.151C823.107 116.083 824.865 121.771 824.963 128.217H802.697C802.307 123.969 800.5 120.648 797.277 118.256C794.055 115.863 789.685 114.667 784.167 114.667C778.552 114.667 774.23 115.839 771.203 118.183C768.176 120.478 766.662 123.407 766.662 126.972C766.662 130.829 768.347 133.759 771.716 135.761C775.085 137.714 779.138 139.252 783.874 140.375L793.615 142.792C799.963 144.208 805.603 146.283 810.534 149.018C815.466 151.703 819.348 155.17 822.18 159.418C825.012 163.617 826.428 168.744 826.428 174.799C826.428 184.809 822.692 192.768 815.222 198.676C807.751 204.584 797.375 207.538 784.094 207.538ZM841.955 206V96.8691H864.953V141.913H911.755V96.8691H934.826V206H911.755V160.883H864.953V206H841.955ZM976.867 96.8691V206H953.869V96.8691H976.867ZM995.91 206V96.8691H1069.45V115.912H1018.91V141.547H1065.56V160.224H1018.91V186.957H1069.59V206H995.91ZM1087.76 206V96.8691H1110.75V186.957H1157.56V206H1087.76ZM1211.68 206H1173.01V96.8691H1211.97C1222.96 96.8691 1232.41 99.0664 1240.32 103.461C1248.23 107.807 1254.31 114.057 1258.56 122.211C1262.85 130.316 1265 140.033 1265 151.361C1265 162.738 1262.85 172.504 1258.56 180.658C1254.31 188.812 1248.21 195.087 1240.25 199.481C1232.29 203.827 1222.77 206 1211.68 206ZM1196.01 186.225H1210.66C1220.96 186.225 1228.77 183.466 1234.09 177.948C1239.42 172.431 1242.08 163.568 1242.08 151.361C1242.08 139.252 1239.42 130.438 1234.09 124.921C1228.77 119.403 1220.96 116.645 1210.66 116.645H1196.01V186.225Z" fill="black"/>
</svg>
