<svg width="1196" height="258" viewBox="0 0 1196 258" fill="none" xmlns="http://www.w3.org/2000/svg">
<path d="M113.858 77.8384C118.143 65.9357 129.434 58 142.085 58H278.315C299.093 58 313.58 78.6117 306.542 98.1616L256.142 238.162C251.857 250.064 240.566 258 227.915 258H91.6848C70.9067 258 56.4202 237.388 63.4582 217.838L113.858 77.8384Z" fill="#6A00FF"/>
<path d="M64.8582 19.8384C69.1432 7.93566 80.4342 0 93.0848 0H229.315C250.093 0 264.58 20.6117 257.542 40.1616L207.142 180.162C202.857 192.064 191.566 200 178.915 200H42.6848C21.9067 200 7.42023 179.388 14.4582 159.838L64.8582 19.8384Z" fill="#E100FF" fill-opacity="0.72"/>
<path d="M422.43 164.773L443.597 90.3594H453.851L447.918 119.29L425.14 197H414.959L422.43 164.773ZM400.53 90.3594L417.376 163.309L422.43 197H412.322L386.468 90.3594H400.53ZM481.243 163.235L497.723 90.3594H511.858L486.077 197H475.97L481.243 163.235ZM455.389 90.3594L475.97 164.773L483.44 197H473.26L451.287 119.29L445.281 90.3594H455.389ZM595.281 185.501V197H538.812V185.501H595.281ZM541.668 90.3594V197H527.532V90.3594H541.668ZM587.811 136.209V147.708H538.812V136.209H587.811ZM594.549 90.3594V101.932H538.812V90.3594H594.549ZM650.799 147.122H623.772L623.626 135.77H648.162C652.215 135.77 655.755 135.086 658.782 133.719C661.81 132.352 664.153 130.398 665.813 127.859C667.522 125.271 668.377 122.195 668.377 118.631C668.377 114.725 667.62 111.551 666.106 109.109C664.642 106.619 662.371 104.812 659.295 103.689C656.268 102.518 652.41 101.932 647.723 101.932H626.922V197H612.786V90.3594H647.723C653.191 90.3594 658.074 90.9209 662.371 92.0439C666.668 93.1182 670.306 94.8271 673.284 97.1709C676.312 99.4658 678.606 102.396 680.169 105.96C681.731 109.524 682.513 113.797 682.513 118.777C682.513 123.172 681.39 127.151 679.144 130.716C676.897 134.231 673.772 137.112 669.769 139.358C665.813 141.604 661.175 143.045 655.853 143.68L650.799 147.122ZM650.14 197H618.206L626.189 185.501H650.14C654.632 185.501 658.44 184.72 661.565 183.157C664.739 181.595 667.156 179.397 668.816 176.565C670.477 173.685 671.307 170.291 671.307 166.385C671.307 162.43 670.599 159.012 669.183 156.131C667.767 153.25 665.545 151.028 662.518 149.466C659.49 147.903 655.584 147.122 650.799 147.122H630.657L630.804 135.77H658.343L661.346 139.871C666.473 140.311 670.818 141.775 674.383 144.266C677.947 146.707 680.657 149.832 682.513 153.641C684.417 157.449 685.369 161.648 685.369 166.238C685.369 172.879 683.904 178.494 680.975 183.084C678.094 187.625 674.017 191.092 668.743 193.484C663.47 195.828 657.269 197 650.14 197ZM763.079 170.047C763.079 167.557 762.688 165.359 761.907 163.455C761.175 161.502 759.856 159.744 757.952 158.182C756.097 156.619 753.509 155.13 750.188 153.714C746.917 152.298 742.767 150.857 737.737 149.393C732.464 147.83 727.703 146.097 723.455 144.192C719.207 142.239 715.569 140.018 712.542 137.527C709.515 135.037 707.195 132.181 705.584 128.958C703.973 125.735 703.167 122.049 703.167 117.898C703.167 113.748 704.021 109.915 705.73 106.399C707.439 102.884 709.881 99.832 713.055 97.2441C716.277 94.6074 720.11 92.5566 724.554 91.0918C728.997 89.627 733.953 88.8945 739.422 88.8945C747.43 88.8945 754.217 90.4326 759.783 93.5088C765.398 96.5361 769.671 100.516 772.601 105.447C775.53 110.33 776.995 115.555 776.995 121.121H762.933C762.933 117.117 762.078 113.577 760.369 110.501C758.66 107.376 756.072 104.935 752.605 103.177C749.139 101.37 744.744 100.467 739.422 100.467C734.393 100.467 730.242 101.224 726.971 102.737C723.699 104.251 721.258 106.302 719.646 108.89C718.084 111.478 717.303 114.432 717.303 117.752C717.303 119.998 717.767 122.049 718.694 123.904C719.671 125.711 721.16 127.396 723.162 128.958C725.213 130.521 727.801 131.961 730.926 133.279C734.1 134.598 737.884 135.867 742.278 137.088C748.333 138.797 753.558 140.701 757.952 142.801C762.347 144.9 765.96 147.269 768.792 149.905C771.673 152.493 773.797 155.447 775.164 158.768C776.58 162.039 777.288 165.75 777.288 169.9C777.288 174.246 776.409 178.177 774.651 181.692C772.894 185.208 770.379 188.211 767.107 190.701C763.836 193.191 759.905 195.12 755.315 196.487C750.774 197.806 745.696 198.465 740.081 198.465C735.149 198.465 730.291 197.781 725.506 196.414C720.77 195.047 716.448 192.996 712.542 190.262C708.685 187.527 705.584 184.158 703.24 180.154C700.945 176.102 699.798 171.414 699.798 166.092H713.86C713.86 169.754 714.568 172.903 715.984 175.54C717.4 178.128 719.329 180.276 721.771 181.985C724.261 183.694 727.068 184.964 730.193 185.794C733.367 186.575 736.663 186.966 740.081 186.966C745.013 186.966 749.188 186.282 752.605 184.915C756.023 183.548 758.611 181.595 760.369 179.056C762.176 176.517 763.079 173.514 763.079 170.047ZM864.959 136.209V147.708H807.244V136.209H864.959ZM809.441 90.3594V197H795.306V90.3594H809.441ZM877.264 90.3594V197H863.201V90.3594H877.264ZM917.547 90.3594V197H903.411V90.3594H917.547ZM1011 185.501V197H954.534V185.501H1011ZM957.391 90.3594V197H943.255V90.3594H957.391ZM1003.53 136.209V147.708H954.534V136.209H1003.53ZM1010.27 90.3594V101.932H954.534V90.3594H1010.27ZM1093.18 185.501V197H1039.86V185.501H1093.18ZM1042.64 90.3594V197H1028.51V90.3594H1042.64ZM1138.23 197H1115.96L1116.11 185.501H1138.23C1145.84 185.501 1152.19 183.914 1157.27 180.74C1162.35 177.518 1166.16 173.025 1168.69 167.264C1171.28 161.453 1172.58 154.666 1172.58 146.902V140.384C1172.58 134.28 1171.84 128.86 1170.38 124.124C1168.91 119.339 1166.77 115.311 1163.93 112.039C1161.1 108.719 1157.63 106.204 1153.53 104.495C1149.48 102.786 1144.82 101.932 1139.54 101.932H1115.52V90.3594H1139.54C1146.53 90.3594 1152.9 91.5312 1158.66 93.875C1164.42 96.1699 1169.38 99.5146 1173.53 103.909C1177.73 108.255 1180.95 113.528 1183.2 119.729C1185.44 125.882 1186.57 132.815 1186.57 140.53V146.902C1186.57 154.617 1185.44 161.575 1183.2 167.776C1180.95 173.929 1177.7 179.178 1173.46 183.523C1169.26 187.869 1164.18 191.214 1158.22 193.558C1152.31 195.853 1145.65 197 1138.23 197ZM1123.5 90.3594V197H1109.37V90.3594H1123.5Z" fill="black"/>
</svg>
